<svg class="border shadow-md dark:border-slate-700" viewBox="0 0 426.69 758.5600000000001" xmlns="http://www.w3.org/2000/svg" preserveAspectRatio="none" style="width: 426.69px; height: 758.56px;"><rect class="bg" id="bg" x="0" y="0" width="426.69" height="758.5600000000001" fill="#ffffff"/><g transform="rotate(0 213.345 379.28000000000003)"><path d="M -313.35 -45.86 S -306.00 -83.78&#10;            0.00 -45.86 146.67 -83.78&#10;            313.35 -45.86 451.69 -83.78&#10;            626.69 -45.86 773.36 -83.78&#10;            940.04 -45.86 h 110 V 958.5600000000001 H -313.35 Z" fill="#0D1B2A" id="-1"/><path d="M -313.35 30.00 S -276.00 -22.00&#10;            0.00 30.00 146.67 -28.00&#10;            313.35 30.00 460.02 -7.93&#10;            626.69 30.00 773.36 -7.93&#10;            940.04 30.00 h 110 V 958.5600000000001 H -313.35 Z" fill="#162535" id="0"/><path d="M -313.35 105.86 S -210.00 67.86&#10;            0.00 105.86 88.35 67.93&#10;            313.35 105.86 430.69 67.93&#10;            626.69 105.86 637.04 52.86&#10;            940.04 105.86 h 110 V 958.5600000000001 H -313.35 Z" fill="#1f2f40" id="1"/><path d="M -313.35 181.71 S -317.00 108.71&#10;            0.00 181.71 59.35 143.78&#10;            313.35 181.71 460.02 143.78&#10;            626.69 181.71 676.04 128.71&#10;            940.04 181.71 h 110 V 958.5600000000001 H -313.35 Z" fill="#28394b" id="2"/><path d="M -313.35 257.57 S -182.00 188.57&#10;            0.00 257.57 146.67 219.64&#10;            313.35 257.57 386.69 208.57&#10;            626.69 257.57 773.36 209.57&#10;            940.04 257.57 h 110 V 958.5600000000001 H -313.35 Z" fill="#314356" id="3"/><path d="M -313.35 333.42 S -166.67 273.42&#10;            0.00 333.42 103.35 261.42&#10;            313.35 333.42 460.02 268.42&#10;            626.69 333.42 773.36 295.50&#10;            940.04 333.42 h 110 V 958.5600000000001 H -313.35 Z" fill="#3a4d61" id="4"/><path d="M -313.35 409.28 S -166.67 371.35&#10;            0.00 409.28 19.35 353.28&#10;            313.35 409.28 368.69 371.35&#10;            626.69 409.28 753.04 366.28&#10;            940.04 409.28 h 110 V 958.5600000000001 H -313.35 Z" fill="#43576c" id="5"/><path d="M -313.35 485.14 S -300.00 447.21&#10;            0.00 485.14 42.35 431.14&#10;            313.35 485.14 335.69 447.21&#10;            626.69 485.14 738.04 447.21&#10;            940.04 485.14 h 110 V 958.5600000000001 H -313.35 Z" fill="#4c6177" id="6"/><path d="M -313.35 560.99 S -166.67 488.99&#10;            0.00 560.99 146.67 495.99&#10;            313.35 560.99 460.02 509.99&#10;            626.69 560.99 773.36 516.99&#10;            940.04 560.99 h 110 V 958.5600000000001 H -313.35 Z" fill="#556b82" id="7"/><path d="M -313.35 636.85 S -166.67 590.85&#10;            0.00 636.85 123.35 598.92&#10;            313.35 636.85 460.02 598.92&#10;            626.69 636.85 688.04 569.85&#10;            940.04 636.85 h 110 V 958.5600000000001 H -313.35 Z" fill="#5e758d" id="8"/><path d="M -313.35 712.70 S -317.00 643.70&#10;            0.00 712.70 27.35 671.70&#10;            313.35 712.70 460.02 674.78&#10;            626.69 712.70 660.04 674.78&#10;            940.04 712.70 h 110 V 958.5600000000001 H -313.35 Z" fill="#677f98" id="9"/></g></svg>